<svg width="47" height="64" viewBox="0 0 47 64" fill="none" xmlns="http://www.w3.org/2000/svg"><path d="M34.4068 13.6832C36.7873 12.3025 41.0132 7.11316 41.0132 5.18011C41.0132 4.02948 40.5559 2.93869 38.6327 2.93869C31.7198 2.93869 13.5171 14.7648 13.5171 22.4165C13.5171 23.4221 13.9013 24.5796 15.7444 24.5796C17.894 24.5796 21.889 24.0388 25.4998 24.0388C29.3393 24.0388 32.3349 25.7395 33.8717 28.0568L39.4742 26.3585C41.3174 25.8177 45.1569 25.2769 45.9252 25.2769C46.6936 25.2769 47 25.7372 47 26.3585C46.9787 27.0455 46.4521 27.609 45.772 27.6725C44.6972 27.8267 41.7793 28.2915 40.2426 28.7541C38.7059 29.2166 36.9405 29.7597 34.9441 30.3765C35.0674 30.8821 35.119 31.4027 35.0974 31.9229C35.0974 46.9178 17.5098 64 8.13862 64C3.1466 64 0 60.677 0 56.5048C0 51.403 3.91724 44.757 14.3632 37.2595C19.8926 33.3175 25.4243 30.9219 30.2608 29.2212C28.7241 27.3664 26.3436 27.0581 23.6544 27.0581C20.2745 27.0581 17.1256 27.7484 14.5919 27.7484C12.2868 27.7484 9.52211 26.202 9.52211 22.879C9.52211 12.9836 29.6457 0 39.4788 0C41.9371 0 44.624 1.38075 44.624 4.17446C44.624 8.1165 37.4802 15.1491 35.868 16.7738C34.7932 17.7794 34.0249 18.4744 32.9501 18.4744C31.8753 18.4744 31.2602 17.8554 31.2602 16.7738C31.2602 15.6922 32.1017 15.1514 34.4068 13.6832ZM31.5574 31.6145C26.7186 33.3152 21.1892 35.8672 15.813 39.9612C6.29548 47.1503 3.45302 52.4063 3.45302 55.9617C3.45302 59.1306 5.2207 60.9094 8.44504 60.9094C15.8176 60.9094 31.793 45.1413 31.793 33.3934C31.7903 32.7928 31.7111 32.1949 31.5574 31.6145Z" fill="#F8F8F8"/></svg>